<?xml version="1.0" encoding="UTF-8" standalone="no"?>
<svg xmlns="http://www.w3.org/2000/svg" height="315px" width="471px" version="1.1" xmlns:xlink="http://www.w3.org/1999/xlink" viewBox="0 0 471 315"><!-- Generator: Sketch 47.1 (45422) - http://www.bohemiancoding.com/sketch -->
 <title>Infographic / IOT_Ubuntu_devices_inforgrapic v3</title>
 <desc>Created with Sketch.</desc>
 <g id="Symbols" fill-rule="evenodd" fill="none">
  <g id="Infographic-/-IOT_Ubuntu_devices_inforgrapic-v3">
   <path id="Fill-7" fill-rule="nonzero" fill="#CDCDCD" d="m188 62c0 1.105-0.9 2-2 2s-2-0.895-2-2 0.9-2 2-2 2 0.895 2 2z"/>
   <path id="Fill-9" fill-rule="nonzero" fill="#CDCDCD" d="m390 95.997c0 1.109-0.9 2.003-2 2.003s-2-0.894-2-2.003c0-1.103 0.9-1.997 2-1.997s2 0.894 2 1.997"/>
   <path id="Fill-11" fill-rule="nonzero" fill="#CDCDCD" d="m397 199c0 1.11-0.89 2-2 2s-2-0.89-2-2c0-1.1 0.89-2 2-2s2 0.9 2 2"/>
   <path id="Fill-13" fill-rule="nonzero" fill="#CDCDCD" d="m276 252c0 1.1-0.9 2-2 2-1.11 0-2-0.9-2-2s0.89-2 2-2c1.1 0 2 0.9 2 2"/>
   <path id="Fill-15" fill-rule="nonzero" fill="#CDCDCD" d="m67 148c0 1.11-0.896 2-2 2s-2-0.89-2-2 0.896-2 2-2 2 0.89 2 2"/>
   <path id="Fill-17" fill-rule="nonzero" fill="#CDCDCD" d="m73 235c0 1.1-0.896 2-2 2s-2-0.9-2-2c0-1.11 0.896-2 2-2s2 0.89 2 2"/>
   <path id="Fill-19" fill-rule="nonzero" fill="#CDCDCD" d="m326 236c0 0.56-0.44 1-1 1s-1-0.44-1-1c0-0.55 0.44-1 1-1s1 0.45 1 1"/>
   <path id="Fill-23" fill-rule="nonzero" fill="#CDCDCD" d="m258 61c0 0.552-0.45 1-1 1-0.56 0-1-0.448-1-1s0.44-1 1-1c0.55 0 1 0.448 1 1"/>
   <path id="Fill-25" fill-rule="nonzero" fill="#CDCDCD" d="m118 96c0 0.556-0.44 1-1 1-0.55 0-1-0.444-1-1 0-0.549 0.45-1 1-1 0.56 0 1 0.451 1 1"/>
   <path id="Fill-27" fill-rule="nonzero" fill="#CDCDCD" d="m101 148c0 0.56-0.45 1-1 1-0.556 0-1-0.44-1-1 0-0.55 0.444-1 1-1 0.55 0 1 0.45 1 1"/>
   <path id="Fill-29" fill-rule="nonzero" fill="#CDCDCD" d="m188 270c0 0.56-0.44 1-1 1-0.55 0-1-0.44-1-1 0-0.55 0.45-1 1-1 0.56 0 1 0.45 1 1"/>
   <path id="Fill-31" fill-rule="nonzero" fill="#E9541F" d="m259 129.04c0.02 0.01 0.03 0.02 0.04 0.03l-0.04 0.04c0.02 0.01 0.03 0.02 0.04 0.03l0.07-0.07c-0.03-0.02-0.05-0.05-0.07-0.07l-0.04 0.04z"/>
   <path id="Fill-33" fill-rule="nonzero" fill="#E9541F" d="m185.1 202.1l-0.03-0.03 0.04-0.04c-0.02-0.01-0.03-0.02-0.04-0.03l-0.07 0.07c0.02 0.02 0.05 0.04 0.07 0.07l0.03-0.04z"/>
   <path id="Fill-35" fill-rule="nonzero" fill="#E9541F" d="m258.41 128.46l0.03-0.03c-0.13-0.14-0.26-0.29-0.39-0.43l-0.05 0.05 0.41 0.41"/>
   <path id="Fill-37" fill-rule="nonzero" fill="#E9541F" d="m259.07 129.03c-0.01-0.01-0.02-0.02-0.04-0.03l-0.03 0.03c0.01 0.01 0.02 0.03 0.03 0.04l0.04-0.04z"/>
   <path id="Fill-39" fill-rule="nonzero" fill="#E9541F" d="m185.03 202l-0.03 0.03c0.13 0.14 0.26 0.29 0.39 0.43l0.05-0.05c-0.14-0.14-0.27-0.28-0.41-0.41"/>
   <polygon id="Fill-41" fill-rule="nonzero" points="185 202.04 185.03 202.07 185.07 202.04 185.04 202" fill="#E9541F"/>
   <g id="Group-4" fill-rule="nonzero" fill="#fff" transform="translate(392 217)">
    <path id="Fill-59" d="m34 27c0.02 0.02 0.04 0.04 0.05 0.06 0.02 0.02 0.03 0.05 0.05 0.07l-0.1-0.13z"/>
    <path id="Fill-60" d="m0.1 26l-0.1 0.13c0.02-0.03 0.03-0.05 0.05-0.08 0.01-0.02 0.03-0.03 0.05-0.05"/>
    <path id="Fill-61" d="m65.575 25.109v-17.218c0-1.7467-0.178-3.0097-0.504-3.8835-0.326-0.8746-0.762-1.3675-1.421-1.7343-1.32-0.7328-3.748-0.7968-7.342-0.8386h-45.608c-3.5985 0.0418-6.0283 0.1053-7.3484 0.8386-0.6611 0.3668-1.0972 0.8597-1.4227 1.7343-0.3261 0.8738-0.5032 2.1368-0.5032 3.8836v17.218c0 1.747 0.1771 3.009 0.5032 3.883 0.3255 0.875 0.7616 1.367 1.4227 1.735 1.3188 0.733 3.7472 0.797 7.3404 0.838h0.008 45.6 0.008c3.594-0.041 6.022-0.105 7.342-0.838 0.659-0.368 1.095-0.86 1.421-1.735 0.326-0.874 0.504-2.136 0.504-3.883zm1.425 0c0 1.84-0.173 3.256-0.594 4.387-0.422 1.13-1.132 1.966-2.067 2.485-1.872 1.041-4.431 0.977-8.022 1.019h-0.004-45.626-0.004c-3.5905-0.042-6.1494 0.022-8.0219-1.019-0.9352-0.519-1.6464-1.355-2.0685-2.485-0.42088-1.131-0.5926-2.547-0.5926-4.387v-17.218c0-1.8407 0.17172-3.2573 0.59259-4.389 0.42211-1.1298 1.1333-1.9648 2.0689-2.4847 1.8721-1.0403 4.431-0.97539 8.0215-1.0173l0.003 0.0000079975h45.626 0.005c3.591 0.041859 6.15-0.022961 8.021 1.0173 0.936 0.5199 1.646 1.3549 2.068 2.4847 0.42 1.1317 0.594 2.5483 0.594 4.3891v17.218z"/>
    <path id="Fill-62" d="m11 8c1.104 0 2 0.8962 2 1.9996 0 1.1044-0.896 2.0004-2 2.0004-1.1047 0-2-0.896-2-2.0004 0-1.1034 0.8953-1.9996 2-1.9996"/>
    <polygon id="Fill-63" points="9.2506 17 9.2506 18.6 7 18.6 7 25 16 25 16 18.6 13.75 18.6 13.75 17"/>
    <polygon id="Fill-64" points="24.251 17 24.251 18.6 22 18.6 22 25 31 25 31 18.6 28.75 18.6 28.75 17"/>
    <polygon id="Fill-65" points="38.25 17 38.25 18.6 36 18.6 36 25 45 25 45 18.6 42.75 18.6 42.75 17"/>
    <polygon id="Fill-66" points="52.25 17 52.25 18.6 50 18.6 50 25 59 25 59 18.6 56.749 18.6 56.749 17"/>
    <path id="Fill-67" d="m26 8c1.105 0 2 0.8962 2 1.9996 0 1.1044-0.895 2.0004-2 2.0004-1.104 0-2-0.896-2-2.0004 0-1.1034 0.896-1.9996 2-1.9996"/>
    <path id="Fill-68" d="m40 8c1.104 0 2 0.8962 2 1.9996 0 1.1044-0.896 2.0004-2 2.0004-1.105 0-2-0.896-2-2.0004 0-1.1034 0.895-1.9996 2-1.9996"/>
    <path id="Fill-69" d="m55 8c1.104 0 2 0.8962 2 1.9996 0 1.1044-0.896 2.0004-2 2.0004s-2-0.896-2-2.0004c0-1.1034 0.896-1.9996 2-1.9996"/>
    <polygon id="Fill-70" points="7 35 16 35 16 32 7 32"/>
    <polygon id="Fill-71" points="50 35 59 35 59 32 50 32"/>
   </g>
   <g id="Group-3" fill-rule="nonzero" fill="#fff" transform="translate(189 259)">
    <path id="Fill-72" d="m49 50c0.013 0.021 0.037 0.032 0.051 0.051 0.016 0.024 0.027 0.052 0.045 0.074l-0.096-0.125z"/>
    <path id="Fill-73" d="m60.558 47.961v-2.923c0-1.78-0.18-3.067-0.51-3.957s-0.77-1.392-1.437-1.766c-1.335-0.747-3.79-0.813-7.425-0.854h-40.363c-3.6393 0.041-6.0978 0.106-7.4322 0.854-0.6691 0.374-1.1105 0.876-1.4394 1.766-0.3302 0.89-0.5089 2.177-0.5089 3.957v2.923c0 1.779 0.1787 3.066 0.5089 3.956 0.3289 0.891 0.7703 1.394 1.4394 1.767 1.3334 0.746 3.7897 0.811 7.4232 0.855h0.009 40.354 0.009c3.635-0.044 6.09-0.109 7.425-0.855 0.667-0.373 1.107-0.876 1.437-1.767 0.33-0.89 0.51-2.177 0.51-3.956zm1.442 0c0 1.874-0.176 3.318-0.601 4.471-0.427 1.151-1.146 2.002-2.092 2.532-1.893 1.06-4.48 0.993-8.112 1.036h-0.005-40.38-0.005c-3.6309-0.043-6.2201 0.023-8.1125-1.036-0.9464-0.53-1.6657-1.381-2.0927-2.532-0.42564-1.153-0.5998-2.597-0.5998-4.471v-2.923c0-1.875 0.17416-3.318 0.59983-4.469 0.42697-1.152 1.1463-2.005 2.0926-2.533 1.8925-1.06 4.4817-0.994 8.1126-1.036h0.005 40.379 0.006c3.631 0.042 6.219-0.024 8.112 1.036 0.946 0.528 1.665 1.381 2.092 2.533 0.425 1.151 0.601 2.594 0.601 4.469v2.923z"/>
    <polygon id="Fill-74" points="48 37 49 37 49 13 48 13"/>
    <polygon id="Fill-75" points="47 37 50 37 50 27 47 27"/>
    <path id="Fill-76" d="m49 44c1.104 0 2 0.896 2 2s-0.896 2-2 2c-1.105 0-2-0.896-2-2s0.895-2 2-2"/>
    <path id="Fill-77" d="m42 44c1.105 0 2 0.896 2 2s-0.895 2-2 2-2-0.896-2-2 0.895-2 2-2"/>
    <path id="Fill-78" d="m35 44c1.104 0 2 0.896 2 2s-0.896 2-2 2-2-0.896-2-2 0.896-2 2-2"/>
    <path id="Fill-79" d="m41.827 22c-3.769-4.687-3.769-12.313 0-17l1.173 1.3682c-3.161 3.9318-3.161 10.331 0 14.263l-1.173 1.369z"/>
    <path id="Fill-80" d="m36.601 28c-7.468-7.719-7.468-20.28 0-28l1.399 1.3587c-6.742 6.9708-6.742 18.312 0 25.282l-1.399 1.359z"/>
    <path id="Fill-81" d="m54.173 22l-1.173-1.369c3.161-3.932 3.161-10.331 0-14.263l1.173-1.368c3.769 4.6867 3.769 12.313 0 17"/>
    <path id="Fill-82" d="m60.4 28l-1.4-1.359c6.743-6.97 6.743-18.311 0-25.282l1.4-1.359c7.467 7.7199 7.467 20.281 0 28"/>
   </g>
   <polygon id="Fill-83" fill-rule="nonzero" points="257 166.68 360 166.68 360 166 257 166" fill="#CDCDCD"/>
   <polygon id="Fill-84" fill-rule="nonzero" points="83 166.68 178 166.68 178 166 83 166" fill="#CDCDCD"/>
   <polygon id="Fill-85" fill-rule="nonzero" points="252 134.56 252.43 135 291 96.431 290.57 96" fill="#CDCDCD"/>
   <polygon id="Fill-86" fill-rule="nonzero" points="191 197.43 190.57 197 152 235.56 152.43 236" fill="#CDCDCD"/>
   <polygon id="Fill-1" fill-rule="nonzero" points="186.61 270 65 148.39 65.386 148 187 269.61" fill="#CDCDCD"/>
   <polygon id="Fill-2" fill-rule="nonzero" points="395.61 200 257 61.386 257.38 61 396 199.62" fill="#CDCDCD"/>
   <polygon id="Fill-3" fill-rule="nonzero" points="100.38 148 100 147.61 186.62 61 187 61.385" fill="#CDCDCD"/>
   <polygon id="Fill-4" fill-rule="nonzero" points="273.39 253 273 252.61 360.61 165 361 165.39" fill="#CDCDCD"/>
   <polygon id="Fill-5" fill-rule="nonzero" points="117 96.68 390 96.68 390 96 117 96" fill="#CDCDCD"/>
   <polygon id="Fill-6" fill-rule="nonzero" points="70 235.67 325 235.67 325 235 70 235" transform="translate(197.5 235.5) scale(-1 1) rotate(180) translate(-197.5 -235.5)" fill="#CDCDCD"/>
   <g id="Group-4" fill-rule="nonzero" transform="translate(172 115)">
    <path id="Fill-2" fill="#DD4814" d="m45.498 0.24362c25.024 0 45.309 20.301 45.309 45.343 0 25.043-20.285 45.348-45.309 45.348s-45.311-20.305-45.311-45.348c-0.00018-25.042 20.287-45.343 45.311-45.343"/>
    <path id="Fill-3" fill="#fff" d="m57.878 24.125c2.895 1.671 6.593 0.682 8.262-2.215 1.671-2.895 0.681-6.597-2.212-8.269-2.895-1.671-6.593-0.679-8.265 2.218-1.669 2.893-0.676 6.594 2.215 8.266zm-12.38 39.147c-2.66 0-5.183-0.592-7.442-1.646l-4.202 7.538c3.509 1.74 7.464 2.724 11.644 2.724 2.434 0 4.785-0.338 7.02-0.957 0.395-2.434 1.837-4.673 4.138-6.002 2.298-1.327 4.953-1.458 7.253-0.589 4.475-4.402 7.384-10.39 7.81-17.059l-8.622-0.126c-0.795 9.036-8.368 16.117-17.599 16.117zm0-35.37c9.231 0 16.806 7.085 17.599 16.116l8.62-0.126c-0.426-6.669-3.336-12.656-7.809-17.059-2.301 0.87-4.958 0.737-7.254-0.587-2.3-1.329-3.743-3.57-4.137-6.003-2.236-0.618-4.589-0.956-7.022-0.956-4.181 0-8.136 0.983-11.645 2.722l4.202 7.539c2.263-1.053 4.785-1.646 7.446-1.646zm-17.671 17.686c0-5.981 2.97-11.268 7.514-14.468l-4.423-7.414c-5.292 3.541-9.228 8.95-10.867 15.288 1.91 1.558 3.132 3.932 3.132 6.594 0 2.659-1.222 5.033-3.132 6.593 1.636 6.338 5.573 11.749 10.867 15.289l4.423-7.415c-4.544-3.199-7.514-8.483-7.514-14.467zm30.051 21.46c-2.892 1.673-3.884 5.373-2.213 8.268 1.67 2.896 5.368 3.888 8.263 2.216 2.893-1.672 3.885-5.372 2.213-8.267-1.67-2.895-5.369-3.888-8.263-2.217zm-43.191-27.515c-3.342 0-6.0509 2.71-6.0509 6.055 0 3.343 2.7089 6.054 6.0509 6.054s6.051-2.711 6.051-6.054c-0.001-3.345-2.709-6.055-6.051-6.055z"/>
   </g>
   <g id="cloud" stroke="#fff" stroke-width="2" transform="translate(401 67)">
    <path id="Stroke-25" d="m38.161 3.5527e-15c-5.299 0.0076706-10.159 2.9325-12.619 7.603-1.621-1.4359-3.714-2.2306-5.884-2.2336-4.895 0-8.865 3.9498-8.865 8.8216 0 0.773 0.104 1.542 0.307 2.288-6.486 1.468-11.092 7.202-11.1 13.82-3.5527e-15 7.837 6.3856 14.19 14.262 14.19h37.776c7.877 0 14.262-6.353 14.262-14.19-0.005-7.742-6.246-14.05-14.025-14.178 0.093-0.64 0.143-1.284 0.148-1.93 0-7.8374-6.385-14.191-14.262-14.191v0.00031049-0.00031049z"/>
   </g>
   <g id="server" transform="translate(4 74)">
    <path id="Rectangle" fill-rule="nonzero" fill="#fff" d="m32.9-20.961l-1.4-1.4v1.4h1.4zm0 53.163l-1.4 1.4v-1.4h1.4zm-9.8-53.163v-1.4h9.8v55.963h-9.8v-1.4h8.4v-53.163h-8.4zm9.8 53.163l-1.4 1.4v-1.4h1.4zm-1.4-54.563l1.4 1.4h-1.4v-1.4zm0 1.4h-8.4v-1.4h9.8v55.963h-9.8v-1.4h8.4v-53.163z" transform="translate(28 5.6206) rotate(-90) translate(-28 -5.6206)"/>
    <path id="Rectangle" fill-rule="nonzero" fill="#fff" d="m20.65 66.152h14.7v-53.163h-14.7v53.163zm-1.4-54.563h17.5v55.963h-17.5v-55.963z" transform="translate(28 39.571) rotate(-90) translate(-28 -39.571)"/>
    <rect id="Rectangle-2" fill-rule="nonzero" transform="translate(46.887 24.521) rotate(-90) translate(-46.887 -24.521)" height="8.3941" width="2.8" y="20.324" x="45.487" fill="#fff"/>
    <rect id="Rectangle-2" fill-rule="nonzero" transform="translate(46.887 39.221) rotate(-90) translate(-46.887 -39.221)" height="8.3941" width="2.8" y="35.024" x="45.487" fill="#fff"/>
    <rect id="Rectangle-2" fill-rule="nonzero" transform="translate(46.887 9.8206) rotate(-90) translate(-46.887 -9.8206)" height="8.3941" width="2.8" y="5.6236" x="45.487" fill="#fff"/>
    <path id="Rectangle" fill-rule="nonzero" fill="#fff" d="m31.5-5.5606h1.4l-1.4-1.4v1.4zm1.4 53.163l-1.4 1.4v-1.4h1.4zm-1.4-53.163h-8.4v-1.4h9.8v55.963h-9.8v-1.4h8.4v-53.163 0.0004zm0 53.163h1.4l-1.4 1.4v-1.4zm0-54.563l1.4 1.4h-1.4v-1.4zm0 54.563v-53.163l-8.4 0.0004v-1.4h9.8v55.963h-9.8v-1.4h8.4z" transform="translate(28 21.021) rotate(-90) translate(-28 -21.021)"/>
    <path id="Path-2" stroke="#fff" stroke-width="2" d="m28 47.606v5.354"/>
    <path id="Path-2" stroke="#fff" stroke-width="2" d="m55.884 53.202h-55.884"/>
    <ellipse id="Oval" fill-rule="nonzero" rx="2.8" ry="2.7982" cy="53.202" cx="28" fill="#fff"/>
   </g>
   <g id="Group" transform="translate(5 205)">
    <path id="Stroke-1" stroke="#fff" stroke-width="2" d="m55 39.954c0 7.046-2.829 6.964-10.13 7.046h-34.738c-7.3001-0.082-10.132 0-10.132-7.046v-16.909c0-7.045 2.8318-6.963 10.132-7.045h34.738c7.301 0.082 10.13 0 10.13 7.045v16.909z"/>
    <path id="Fill-3" fill-rule="nonzero" fill="#fff" d="m47 37c1.105 0 2 0.896 2 2s-0.895 2-2 2c-1.104 0-2-0.896-2-2s0.896-2 2-2"/>
    <path id="Fill-5" fill-rule="nonzero" fill="#fff" d="m40 37c1.105 0 2 0.896 2 2s-0.895 2-2 2c-1.104 0-2-0.896-2-2s0.896-2 2-2"/>
    <path id="Fill-7" fill-rule="nonzero" fill="#fff" d="m33 37c1.104 0 2 0.896 2 2s-0.896 2-2 2-2-0.896-2-2 0.896-2 2-2"/>
    <path id="Stroke-9" stroke-linejoin="round" stroke="#fff" stroke-width="2" d="m10 47v16"/>
    <path id="Stroke-11" stroke-linejoin="round" stroke="#fff" stroke-width="2" d="m18 47v16"/>
    <path id="Stroke-13" stroke-linejoin="round" stroke="#fff" stroke-width="2" d="m25 47v16"/>
    <path id="Stroke-15" stroke-linejoin="round" stroke="#fff" stroke-width="2" d="m47 47v16"/>
    <path id="Stroke-17" stroke-linejoin="round" stroke="#fff" stroke-width="6.001" d="m47 47v8"/>
    <path id="Stroke-19" stroke-linejoin="round" stroke="#fff" stroke-width="2" d="m10 0v16"/>
    <path id="Stroke-21" stroke-linejoin="round" stroke="#fff" stroke-width="2" d="m25 0v16"/>
    <path id="Stroke-23" stroke-linejoin="round" stroke="#fff" stroke-width="2" d="m39 0v16"/>
   </g>
   <g id="Group-2" transform="translate(189 4)">
    <path id="path4297_5_" fill-rule="nonzero" fill="#fff" d="m0 40.651c0 3.864 1.3542 3.864 8.125 3.864h48.75c6.771 0 8.125 0 8.125-3.864h-27.083v0.966h-10.834v-0.966h-27.083z"/>
    <path id="Rectangle-2" stroke="#fff" stroke-width="2" d="m4 37h57v-30c0-3.3137-2.686-6-6-6h-45c-3.3137 0-6 2.6863-6 6v30z"/>
   </g>
  </g>
 </g>
</svg>
